<?xml version="1.0" encoding="UTF-8" standalone="no"?>
<svg
   xmlns:dc="http://purl.org/dc/elements/1.1/"
   xmlns:cc="http://creativecommons.org/ns#"
   xmlns:rdf="http://www.w3.org/1999/02/22-rdf-syntax-ns#"
   xmlns:svg="http://www.w3.org/2000/svg"
   xmlns="http://www.w3.org/2000/svg"
   viewBox="0 0 1066.6667 1066.6667"
   height="1066.6667"
   width="1066.6667"
   xml:space="preserve"
   id="svg2"
   version="1.1"><metadata
     id="metadata8"><rdf:RDF><cc:Work
         rdf:about=""><dc:format>image/svg+xml</dc:format><dc:type
           rdf:resource="http://purl.org/dc/dcmitype/StillImage" /></cc:Work></rdf:RDF></metadata><defs
     id="defs6"><clipPath
       id="clipPath216"
       clipPathUnits="userSpaceOnUse"><path
         id="path214"
         d="m 4000,1300.11 c -1284,0 -2324.88,147.41 -2324.88,329.25 0,181.84 1040.88,329.25 2324.88,329.25 1283.99,0 2324.88,-147.41 2324.88,-329.25 0,-181.84 -1040.89,-329.25 -2324.88,-329.25" /></clipPath><radialGradient
       id="radialGradient222"
       spreadMethod="pad"
       gradientTransform="matrix(2324.88,0,0,-329.25,4000,1629.36)"
       gradientUnits="userSpaceOnUse"
       r="1"
       cy="0"
       cx="0"
       fy="0"
       fx="0"><stop
         id="stop218"
         offset="0"
         style="stop-opacity:1;stop-color:#595a5c" /><stop
         id="stop220"
         offset="1"
         style="stop-opacity:1;stop-color:#f6f6f6" /></radialGradient></defs><g
     transform="matrix(1.3333333,0,0,-1.3333333,0,1066.6667)"
     id="g10"><g
       transform="scale(0.1)"
       id="g12"><path
         id="path14"
         style="fill:#ffffff;fill-opacity:1;fill-rule:nonzero;stroke:none"
         d="M 0,0 H 8000 V 8000 H 0 Z" /><path
         id="path16"
         style="fill:#3b3b3c;fill-opacity:1;fill-rule:nonzero;stroke:none"
         d="m 5891.29,4053.81 5.07,0.86 -4.32,4.42 411,342.88 -389.42,-1252.69 z m -1015.15,-1755.95 503.98,627.97 503,178.33 z M 2318.3,2868.77 1761.04,4044.45 2797.95,2588.17 Z M 1931.09,5382.74 1735.2,4143.96 1710.05,4754.2 Z m 607.37,385.18 -568.4,-311.96 887.57,940.38 z m 1624.76,932.35 -708.03,-331.54 -546.11,57.96 z m 2034.36,-1574.14 -691.73,1028.12 440.34,-475.36 z m 27.36,-74.95 82.58,-632.44 -409.81,-341.9 z m -849.6,-2112.83 -965.46,862.88 h 0.23 l -2.1,1.84 1468.41,248.23 z m 11.12,0.34 495.2,1099.89 22.63,-916.29 z m -1270.12,-409.83 283.46,1267.97 967.47,-864.68 z m 10.54,-7.02 1235.88,398.36 -520.65,-648.75 z m -15.36,-5.23 707.39,-247.64 -1309.11,-83.72 z m -18.52,1.12 -605.15,-333.14 -652.55,381.73 z M 2642.02,3802.41 2811.2,2586.81 1744.99,4084.24 Z m 2199.62,2479.32 -1365.76,85.65 729.43,341.56 z m 20.25,-1.36 -0.11,0.1 -0.36,0.02 -612.89,411.48 1180.98,-477.79 z m 13.19,-11.6 587.78,-68.54 738.52,-1097.67 z M 4746.09,5218.6 5875.87,4061.35 4403.45,3812.43 Z M 4382.26,3801.23 2821.75,2583.56 2652.25,3801.46 Z M 2876.05,5131.02 1747.94,4114.34 2545.07,5758.7 Z m 5.96,10.15 -329.11,624.13 891.21,584.5 z m 1857.45,97.49 -1269.15,1119.05 1383.9,-86.79 z M 2890.33,5135.35 3457.76,6355.43 4730.88,5232.89 Z m 1503.44,-1319.72 -0.02,-0.1 -1498.89,1310.04 1842.06,97.63 -343.01,-1407.69 z M 2885.66,5120.32 4383.47,3811.23 H 2652.5 Z m 1863.32,113.53 114.68,1031.64 1348.36,-1185.6 -1462.44,153.03 0.23,0.97 z M 1742.12,4095.63 2874.81,5116.45 2642.61,3812.71 Z M 4105.73,2527.25 2829.05,2576.57 4388.87,3793.7 Z m 650.89,2694.88 1463.76,-153.17 -336.41,-1001.61 z m -1875.93,1197.52 560.92,-59.53 -886.43,-581.36 z M 2530.88,5752.35 1742.48,4126 1949.17,5433.09 Z m 3787.05,-1336.13 -84.15,644.54 7.52,-6.61 -9.34,20.53 -0.06,0.42 -0.42,0.63 -276.52,608.04 -0.33,0.74 -484.98,523.54 -0.64,0.94 -1262.82,510.89 -1328.66,-289.84 -2.64,0.28 -1.24,-2.44 -933.73,-989.28 -0.17,-1.08 -239.45,-680.9 -0.31,-0.91 27.19,-660.09 -4.76,-4.29 5,-1.57 0.68,-16.36 4.12,8.51 577.7,-1218.81 0.66,-1.4 501.51,-293.38 0.81,-1.13 1.04,-0.04 0.29,-2.14 1.51,1.17 670.83,-392.43 1356.55,86.75 2.37,-0.83 1.86,2.32 1064.49,852.36 2.62,0.92 -0.07,2.82 403.22,1297.08 0.32,1.05" /><path
         id="path18"
         style="fill:#0000fe;fill-opacity:1;fill-rule:nonzero;stroke:none"
         d="m 3451.05,6371.33 -125.37,72.38 -61.72,35.64 v -216.04 l 187.09,-108.01 v 216.03" /><path
         id="path20"
         style="fill:#0000fe;fill-opacity:1;fill-rule:nonzero;stroke:none"
         d="m 3461.05,6155.3 187.09,108.01 v 216.04 l -65.41,-37.77 -121.68,-70.25 V 6155.3" /><path
         id="path22"
         style="fill:#0000fe;fill-opacity:1;fill-rule:nonzero;stroke:none"
         d="m 3268.96,6488.01 187.09,-108.02 187.09,108.02 -187.09,108.02 -187.09,-108.02" /><path
         id="path24"
         style="fill:#ccccc9;fill-opacity:1;fill-rule:nonzero;stroke:none"
         d="m 3263.96,6479.35 61.72,-35.64 125.37,-72.38 V 6155.3 l -187.09,108.01 z m 379.18,8.66 -187.09,-108.02 -187.09,108.02 187.09,108.02 z m 5,-8.66 V 6263.31 L 3461.05,6155.3 v 216.03 l 121.68,70.25 z m -189.59,126.78 c -1.54,0.89 -3.46,0.89 -5,0 l -197.09,-113.79 c -1.55,-0.89 -2.5,-2.55 -2.5,-4.33 v -227.59 c 0,-1.78 0.95,-3.43 2.5,-4.33 l 197.09,-113.79 2.5,-0.66 2.5,0.66 197.09,113.79 c 1.55,0.9 2.5,2.55 2.5,4.33 v 227.59 c 0,1.78 -0.95,3.44 -2.5,4.33 l -197.09,113.79" /><path
         id="path26"
         style="fill:#0000fe;fill-opacity:1;fill-rule:nonzero;stroke:none"
         d="m 6213.69,5103.46 -125.37,72.38 -61.72,35.63 v -216.03 l 187.09,-108.02 v 216.04" /><path
         id="path28"
         style="fill:#0000fe;fill-opacity:1;fill-rule:nonzero;stroke:none"
         d="m 6223.69,4887.42 187.09,108.02 v 216.03 l -61.72,-35.63 -125.37,-72.38 v -216.04" /><path
         id="path30"
         style="fill:#0000fe;fill-opacity:1;fill-rule:nonzero;stroke:none"
         d="m 6031.6,5220.13 187.09,-108.02 187.09,108.02 -187.09,108.02 -187.09,-108.02" /><path
         id="path32"
         style="fill:#ccccc9;fill-opacity:1;fill-rule:nonzero;stroke:none"
         d="m 6026.6,5211.47 61.72,-35.63 125.37,-72.38 v -216.04 l -187.09,108.02 z m 384.18,0 v -216.03 l -187.09,-108.02 v 216.04 l 125.37,72.38 z m -5,8.66 -187.09,-108.02 -187.09,108.02 187.09,108.02 z m 12.5,4.33 -197.09,113.8 c -1.54,0.89 -3.46,0.89 -5,0 l -197.09,-113.8 c -1.54,-0.89 -2.5,-2.54 -2.5,-4.33 v -227.58 c 0,-1.78 0.96,-3.43 2.5,-4.33 l 197.09,-113.79 2.5,-0.67 2.5,0.67 197.09,113.79 c 1.54,0.9 2.5,2.55 2.5,4.33 v 227.58 c 0,1.79 -0.96,3.44 -2.5,4.33" /><path
         id="path34"
         style="fill:#0000fe;fill-opacity:1;fill-rule:nonzero;stroke:none"
         d="m 2555.89,5788.67 -86.91,50.18 -37.65,21.73 v -143.83 l 124.56,-71.91 v 143.83" /><path
         id="path36"
         style="fill:#ccccc9;fill-opacity:1;fill-rule:nonzero;stroke:none"
         d="m 2685.45,5869.24 -124.56,-71.92 -124.56,71.92 124.56,71.92 z m 5,-8.66 v -143.83 l -124.56,-71.91 v 143.83 l 86.92,50.18 z m -259.12,0 37.65,-21.73 86.91,-50.18 v -143.83 l -124.56,71.91 z m 127.06,-228.73 2.5,-0.67 2.5,0.67 134.56,77.69 c 1.55,0.89 2.5,2.54 2.5,4.33 v 155.37 c 0,1.79 -0.95,3.44 -2.5,4.33 l -134.56,77.69 c -1.54,0.89 -3.45,0.89 -5,0 l -134.56,-77.69 c -1.54,-0.89 -2.5,-2.54 -2.5,-4.33 v -155.37 c 0,-1.79 0.96,-3.44 2.5,-4.33 l 134.56,-77.69" /><path
         id="path38"
         style="fill:#0000fe;fill-opacity:1;fill-rule:nonzero;stroke:none"
         d="m 2565.89,5644.84 124.56,71.91 v 143.83 l -37.64,-21.73 -86.92,-50.18 v -143.83" /><path
         id="path40"
         style="fill:#0000fe;fill-opacity:1;fill-rule:nonzero;stroke:none"
         d="m 2436.33,5869.24 124.56,-71.92 124.56,71.92 -124.56,71.92 -124.56,-71.92" /><path
         id="path42"
         style="fill:#0000fe;fill-opacity:1;fill-rule:nonzero;stroke:none"
         d="m 2872.92,5161.36 -125.37,72.38 -61.72,35.63 v -216.03 l 187.09,-108.01 v 216.03" /><path
         id="path44"
         style="fill:#0000fe;fill-opacity:1;fill-rule:nonzero;stroke:none"
         d="m 2882.92,4945.33 187.09,108.01 v 216.03 l -61.72,-35.63 -125.37,-72.38 v -216.03" /><path
         id="path46"
         style="fill:#0000fe;fill-opacity:1;fill-rule:nonzero;stroke:none"
         d="m 2690.83,5278.04 187.09,-108.02 187.09,108.02 -187.09,108.02 -187.09,-108.02" /><path
         id="path48"
         style="fill:#ccccc9;fill-opacity:1;fill-rule:nonzero;stroke:none"
         d="m 2685.83,5269.37 61.72,-35.63 125.37,-72.38 v -216.03 l -187.09,108.01 z m 384.18,0 v -216.03 l -187.09,-108.01 v 216.03 l 125.37,72.38 z m -5,8.67 -187.09,-108.02 -187.09,108.02 187.09,108.02 z m -184.59,118.12 c -1.54,0.89 -3.46,0.89 -5,0 l -197.09,-113.79 c -1.55,-0.9 -2.5,-2.55 -2.5,-4.33 v -227.58 c 0,-1.79 0.95,-3.44 2.5,-4.33 l 197.09,-113.8 2.5,-0.66 2.5,0.66 197.09,113.8 c 1.55,0.89 2.5,2.54 2.5,4.33 v 227.58 c 0,1.78 -0.95,3.43 -2.5,4.33 l -197.09,113.79" /><path
         id="path50"
         style="fill:#0000fe;fill-opacity:1;fill-rule:nonzero;stroke:none"
         d="m 4861.44,6300.17 -124.36,71.79 -62.74,36.23 v -216.04 l 187.1,-108.01 v 216.03" /><path
         id="path52"
         style="fill:#0000fe;fill-opacity:1;fill-rule:nonzero;stroke:none"
         d="m 4871.44,6084.14 187.09,108.01 v 216.04 l -54.4,-31.41 -132.69,-76.61 v -216.03" /><path
         id="path54"
         style="fill:#0000fe;fill-opacity:1;fill-rule:nonzero;stroke:none"
         d="m 4679.34,6416.85 187.1,-108.02 187.09,108.02 -187.09,108.02 -187.1,-108.02" /><path
         id="path56"
         style="fill:#ccccc9;fill-opacity:1;fill-rule:nonzero;stroke:none"
         d="m 4674.34,6408.19 62.74,-36.23 124.36,-71.79 v -216.03 l -187.1,108.01 z m 379.19,8.66 -187.09,-108.02 -187.1,108.02 187.1,108.02 z m 5,-8.66 v -216.04 l -187.09,-108.01 v 216.03 l 132.69,76.61 z m -189.59,126.78 c -1.55,0.89 -3.46,0.89 -5,0 l -197.1,-113.79 c -1.55,-0.89 -2.5,-2.54 -2.5,-4.33 v -227.58 c 0,-1.79 0.95,-3.44 2.5,-4.33 l 197.1,-113.79 2.5,-0.67 2.5,0.67 197.09,113.79 c 1.54,0.89 2.5,2.54 2.5,4.33 v 227.58 c 0,1.79 -0.96,3.44 -2.5,4.33 l -197.09,113.79" /><path
         id="path58"
         style="fill:#0000fe;fill-opacity:1;fill-rule:nonzero;stroke:none"
         d="m 4391.79,3827.54 -272.28,157.21 v -314.4 l 272.28,-157.21 v 314.4" /><path
         id="path60"
         style="fill:#0000fe;fill-opacity:1;fill-rule:nonzero;stroke:none"
         d="m 4401.79,3513.14 272.28,157.21 v 314.4 l -272.28,-157.21 v -314.4" /><path
         id="path62"
         style="fill:#0000fe;fill-opacity:1;fill-rule:nonzero;stroke:none"
         d="m 4124.51,3993.41 272.28,-157.21 272.28,157.21 -272.28,157.2 -272.28,-157.2" /><path
         id="path64"
         style="fill:#ccccc9;fill-opacity:1;fill-rule:nonzero;stroke:none"
         d="m 4674.07,3670.35 -272.28,-157.21 v 314.4 l 272.28,157.21 z m -554.56,314.4 272.28,-157.21 v -314.4 l -272.28,157.21 z m 549.56,8.66 -272.28,-157.21 -272.28,157.21 272.28,157.2 z m -269.78,167.3 c -1.55,0.89 -3.46,0.89 -5,0 l -282.28,-162.97 c -1.54,-0.89 -2.5,-2.54 -2.5,-4.33 v -325.95 c 0,-1.79 0.96,-3.44 2.5,-4.33 l 282.28,-162.97 2.5,-0.68 2.5,0.68 282.28,162.97 c 1.55,0.89 2.5,2.54 2.5,4.33 v 325.95 c 0,1.79 -0.95,3.44 -2.5,4.33 l -282.28,162.97" /><path
         id="path66"
         style="fill:#0000fe;fill-opacity:1;fill-rule:nonzero;stroke:none"
         d="m 2641.53,3849.21 -187.09,108.02 V 3741.2 l 187.09,-108.02 v 216.03" /><path
         id="path68"
         style="fill:#0000fe;fill-opacity:1;fill-rule:nonzero;stroke:none"
         d="m 2838.62,3957.23 -187.09,-108.02 v -216.03 l 187.09,108.02 v 216.03" /><path
         id="path70"
         style="fill:#ccccc9;fill-opacity:1;fill-rule:nonzero;stroke:none"
         d="m 2454.44,3957.23 187.09,-108.02 v -216.03 l -187.09,108.02 z m 379.18,8.66 -187.09,-108.02 -187.09,108.02 187.09,108.02 z m -182.09,-116.68 187.09,108.02 V 3741.2 l -187.09,-108.02 z m 197.09,-110.9 v 227.58 c 0,1.79 -0.95,3.44 -2.5,4.32 l -197.09,113.8 c -1.54,0.89 -3.45,0.89 -5,0 l -197.09,-113.8 c -1.54,-0.88 -2.5,-2.53 -2.5,-4.32 v -227.58 c 0,-1.79 0.96,-3.44 2.5,-4.33 l 197.09,-113.78 2.5,-0.68 2.5,0.68 197.09,113.78 c 1.55,0.89 2.5,2.54 2.5,4.33" /><path
         id="path72"
         style="fill:#0000fe;fill-opacity:1;fill-rule:nonzero;stroke:none"
         d="m 2646.53,3857.87 187.09,108.02 -187.09,108.02 -187.09,-108.02 187.09,-108.02" /><path
         id="path74"
         style="fill:#0000fe;fill-opacity:1;fill-rule:nonzero;stroke:none"
         d="m 1727.27,4090.6 -90.66,52.34 -47.4,27.36 v -159.41 l 138.06,-79.71 v 159.42" /><path
         id="path76"
         style="fill:#0000fe;fill-opacity:1;fill-rule:nonzero;stroke:none"
         d="m 1737.27,3931.18 138.05,79.71 v 159.41 l -43.58,-25.17 -94.47,-54.53 v -159.42" /><path
         id="path78"
         style="fill:#0000fe;fill-opacity:1;fill-rule:nonzero;stroke:none"
         d="m 1594.21,4178.96 138.06,-79.71 138.05,79.71 -138.05,79.7 -138.06,-79.7" /><path
         id="path80"
         style="fill:#ccccc9;fill-opacity:1;fill-rule:nonzero;stroke:none"
         d="m 1589.21,4170.3 47.4,-27.36 90.66,-52.34 v -159.42 l -138.06,79.71 z m 281.11,8.66 -138.05,-79.71 -138.06,79.71 138.06,79.7 z m 5,-8.66 v -159.41 l -138.05,-79.71 v 159.42 l 94.47,54.53 z m -140.55,98.46 c -1.54,0.89 -3.46,0.89 -5,0 l -148.06,-85.47 c -1.54,-0.89 -2.5,-2.54 -2.5,-4.33 V 4008 c 0,-1.78 0.96,-3.43 2.5,-4.33 l 148.06,-85.48 2.5,-0.67 2.5,0.67 148.05,85.48 c 1.55,0.9 2.5,2.55 2.5,4.33 v 170.96 c 0,1.79 -0.95,3.44 -2.5,4.33 l -148.05,85.47" /><path
         id="path82"
         style="fill:#0000fe;fill-opacity:1;fill-rule:nonzero;stroke:none"
         d="m 4839.55,2297.48 -138.05,79.7 v -159.4 l 138.05,-79.7 v 159.4" /><path
         id="path84"
         style="fill:#0000fe;fill-opacity:1;fill-rule:nonzero;stroke:none"
         d="m 4849.55,2138.08 138.06,79.7 v 159.4 l -138.06,-79.7 v -159.4" /><path
         id="path86"
         style="fill:#0000fe;fill-opacity:1;fill-rule:nonzero;stroke:none"
         d="m 4706.5,2385.84 138.05,-79.7 138.06,79.7 -138.06,79.71 -138.05,-79.71" /><path
         id="path88"
         style="fill:#ccccc9;fill-opacity:1;fill-rule:nonzero;stroke:none"
         d="m 4987.61,2217.78 -138.06,-79.7 v 159.4 l 138.06,79.7 z m -286.11,159.4 138.05,-79.7 v -159.4 l -138.05,79.7 z m 143.05,-71.04 -138.05,79.7 138.05,79.71 138.06,-79.71 z m 150.56,84.03 -148.06,85.47 c -1.54,0.9 -3.46,0.9 -5,0 L 4694,2390.17 c -1.54,-0.89 -2.5,-2.54 -2.5,-4.33 v -170.95 c 0,-1.78 0.96,-3.43 2.5,-4.32 l 148.05,-85.48 2.5,-0.68 2.5,0.68 148.06,85.48 c 1.54,0.89 2.5,2.54 2.5,4.32 v 170.95 c 0,1.79 -0.96,3.44 -2.5,4.33" /><path
         id="path90"
         style="fill:#0000fe;fill-opacity:1;fill-rule:nonzero;stroke:none"
         d="m 5372.1,2962.31 -138.06,79.71 v -159.4 l 138.06,-79.71 v 159.4" /><path
         id="path92"
         style="fill:#0000fe;fill-opacity:1;fill-rule:nonzero;stroke:none"
         d="m 5382.1,2802.91 138.06,79.71 v 159.4 l -138.06,-79.71 v -159.4" /><path
         id="path94"
         style="fill:#0000fe;fill-opacity:1;fill-rule:nonzero;stroke:none"
         d="m 5239.04,3050.68 138.06,-79.7 138.06,79.7 -138.06,79.71 -138.06,-79.71" /><path
         id="path96"
         style="fill:#ccccc9;fill-opacity:1;fill-rule:nonzero;stroke:none"
         d="m 5520.16,2882.62 -138.06,-79.71 v 159.4 l 138.06,79.71 z m -286.12,159.4 138.06,-79.71 v -159.4 l -138.06,79.71 z m 143.06,-71.04 -138.06,79.7 138.06,79.71 138.06,-79.71 z m 150.56,84.03 -148.06,85.48 c -1.54,0.9 -3.46,0.9 -5,0 l -148.06,-85.48 c -1.54,-0.89 -2.5,-2.54 -2.5,-4.33 v -170.95 c 0,-1.79 0.96,-3.44 2.5,-4.33 l 148.06,-85.48 2.5,-0.67 2.5,0.67 148.06,85.48 c 1.54,0.89 2.5,2.54 2.5,4.33 v 170.95 c 0,1.79 -0.96,3.44 -2.5,4.33" /><path
         id="path98"
         style="fill:#0000fe;fill-opacity:1;fill-rule:nonzero;stroke:none"
         d="m 4738.37,5252.99 -90.66,52.35 -47.4,27.36 v -159.41 l 138.06,-79.71 v 159.41" /><path
         id="path100"
         style="fill:#ccccc9;fill-opacity:1;fill-rule:nonzero;stroke:none"
         d="m 4881.42,5341.36 -138.05,-79.71 -138.06,79.71 138.06,79.7 z m 5,-8.66 v -159.41 l -138.05,-79.71 v 159.41 l 98.82,57.06 z m -286.11,0 47.4,-27.36 90.66,-52.35 v -159.41 l -138.06,79.71 z m 140.56,-252.11 2.5,-0.67 2.5,0.67 148.05,85.48 c 1.54,0.89 2.5,2.54 2.5,4.33 v 170.96 c 0,1.78 -0.96,3.43 -2.5,4.33 l -148.05,85.48 c -1.54,0.89 -3.46,0.89 -5,0 l -148.06,-85.48 c -1.54,-0.9 -2.5,-2.55 -2.5,-4.33 V 5170.4 c 0,-1.79 0.96,-3.44 2.5,-4.33 l 148.06,-85.48" /><path
         id="path102"
         style="fill:#0000fe;fill-opacity:1;fill-rule:nonzero;stroke:none"
         d="m 4748.37,5093.58 138.05,79.71 v 159.41 l -39.23,-22.65 -98.82,-57.06 v -159.41" /><path
         id="path104"
         style="fill:#0000fe;fill-opacity:1;fill-rule:nonzero;stroke:none"
         d="m 4605.31,5341.36 138.06,-79.71 138.05,79.71 -138.05,79.7 -138.06,-79.7" /><path
         id="path106"
         style="fill:#0000fe;fill-opacity:1;fill-rule:nonzero;stroke:none"
         d="m 5881.11,4070.88 -85.1,49.13 -52.95,30.57 v -159.41 l 138.05,-79.71 v 159.42" /><path
         id="path108"
         style="fill:#0000fe;fill-opacity:1;fill-rule:nonzero;stroke:none"
         d="m 5891.11,3911.46 138.05,79.71 v 159.41 l -46.42,-26.8 -91.63,-52.9 v -159.42" /><path
         id="path110"
         style="fill:#0000fe;fill-opacity:1;fill-rule:nonzero;stroke:none"
         d="m 5748.06,4159.24 138.05,-79.7 138.05,79.7 -138.05,79.71 -138.05,-79.71" /><path
         id="path112"
         style="fill:#ccccc9;fill-opacity:1;fill-rule:nonzero;stroke:none"
         d="m 5743.06,4150.58 52.95,-30.57 85.1,-49.13 v -159.42 l -138.05,79.71 z m 286.1,0 v -159.41 l -138.05,-79.71 v 159.42 l 91.63,52.9 z m -5,8.66 -138.05,-79.7 -138.05,79.7 138.05,79.71 z m -135.55,89.81 c -1.54,0.89 -3.45,0.89 -5,0 l -148.05,-85.48 c -1.55,-0.89 -2.5,-2.54 -2.5,-4.33 v -170.96 c 0,-1.79 0.95,-3.44 2.5,-4.32 l 148.05,-85.48 2.5,-0.68 2.5,0.68 148.05,85.48 c 1.54,0.88 2.5,2.53 2.5,4.32 v 170.96 c 0,1.79 -0.96,3.44 -2.5,4.33 l -148.05,85.48" /><path
         id="path114"
         style="fill:#0000fe;fill-opacity:1;fill-rule:nonzero;stroke:none"
         d="m 1680.13,4766.8 -54.91,31.7 -24.85,14.35 v -92.1 l 79.76,-46.04 v 92.09" /><path
         id="path116"
         style="fill:#ccccc9;fill-opacity:1;fill-rule:nonzero;stroke:none"
         d="m 1764.89,4821.51 -79.76,-46.05 -79.76,46.05 79.76,46.05 z m -164.52,-8.66 24.85,-14.35 54.91,-31.7 v -92.09 l -79.76,46.04 z m 169.52,0 v -92.1 l -79.76,-46.04 v 92.09 l 51.36,29.66 z m -87.26,-151.14 2.5,-0.67 2.5,0.67 89.76,51.83 c 1.55,0.89 2.5,2.54 2.5,4.33 v 103.64 c 0,1.79 -0.95,3.44 -2.5,4.33 l -89.76,51.82 c -1.55,0.89 -3.46,0.89 -5,0 l -89.76,-51.82 c -1.55,-0.89 -2.5,-2.54 -2.5,-4.33 v -103.64 c 0,-1.79 0.95,-3.44 2.5,-4.33 l 89.76,-51.83" /><path
         id="path118"
         style="fill:#0000fe;fill-opacity:1;fill-rule:nonzero;stroke:none"
         d="m 1690.13,4674.71 79.76,46.04 v 92.1 l -28.4,-16.39 -51.36,-29.66 v -92.09" /><path
         id="path120"
         style="fill:#0000fe;fill-opacity:1;fill-rule:nonzero;stroke:none"
         d="m 1605.37,4821.51 79.76,-46.05 79.76,46.05 -79.76,46.05 -79.76,-46.05" /><path
         id="path122"
         style="fill:#0000fe;fill-opacity:1;fill-rule:nonzero;stroke:none"
         d="m 2818,2597.73 -79.76,46.05 v -92.09 l 79.76,-46.05 v 92.09" /><path
         id="path124"
         style="fill:#0000fe;fill-opacity:1;fill-rule:nonzero;stroke:none"
         d="m 2828,2505.64 79.76,46.05 v 92.09 L 2828,2597.73 v -92.09" /><path
         id="path126"
         style="fill:#0000fe;fill-opacity:1;fill-rule:nonzero;stroke:none"
         d="m 2823,2606.4 79.76,46.04 -79.76,46.06 -79.76,-46.06 79.76,-46.04" /><path
         id="path128"
         style="fill:#ccccc9;fill-opacity:1;fill-rule:nonzero;stroke:none"
         d="M 2907.76,2551.69 2828,2505.64 v 92.09 l 79.76,46.05 z m -169.52,92.09 79.76,-46.05 v -92.09 l -79.76,46.05 z m 164.52,8.66 -79.76,-46.04 -79.76,46.04 79.76,46.06 z m 12.5,4.33 -89.76,51.82 c -1.54,0.9 -3.45,0.9 -5,0 l -89.76,-51.82 c -1.55,-0.89 -2.5,-2.54 -2.5,-4.33 V 2548.8 c 0,-1.79 0.95,-3.44 2.5,-4.33 l 89.76,-51.81 2.5,-0.68 2.5,0.68 89.76,51.81 c 1.55,0.89 2.5,2.54 2.5,4.33 v 103.64 c 0,1.79 -0.95,3.44 -2.5,4.33" /><path
         id="path130"
         style="fill:#0000fe;fill-opacity:1;fill-rule:nonzero;stroke:none"
         d="m 3485.55,2197.14 -79.76,46.04 v -92.08 l 79.76,-46.05 v 92.09" /><path
         id="path132"
         style="fill:#0000fe;fill-opacity:1;fill-rule:nonzero;stroke:none"
         d="m 3495.55,2105.05 79.75,46.05 v 92.08 l -79.75,-46.04 v -92.09" /><path
         id="path134"
         style="fill:#0000fe;fill-opacity:1;fill-rule:nonzero;stroke:none"
         d="m 3490.55,2205.8 79.75,46.05 -79.75,46.05 -79.76,-46.05 79.76,-46.05" /><path
         id="path136"
         style="fill:#ccccc9;fill-opacity:1;fill-rule:nonzero;stroke:none"
         d="m 3575.3,2151.1 -79.75,-46.05 v 92.09 l 79.75,46.04 z m -169.51,92.08 79.76,-46.04 v -92.09 l -79.76,46.05 z m 164.51,8.67 -79.75,-46.05 -79.76,46.05 79.76,46.05 z m 12.5,4.32 -89.75,51.83 c -1.55,0.9 -3.46,0.9 -5,0 l -89.76,-51.83 c -1.55,-0.89 -2.5,-2.54 -2.5,-4.32 v -103.64 c 0,-1.78 0.95,-3.43 2.5,-4.32 l 89.76,-51.83 2.5,-0.67 2.5,0.67 89.75,51.83 c 1.55,0.89 2.5,2.54 2.5,4.32 v 103.64 c 0,1.78 -0.95,3.43 -2.5,4.32" /><path
         id="path138"
         style="fill:#0000fe;fill-opacity:1;fill-rule:nonzero;stroke:none"
         d="m 1939.62,5444.1 -54.91,31.7 -24.85,14.34 v -92.09 l 79.76,-46.04 v 92.09" /><path
         id="path140"
         style="fill:#0000fe;fill-opacity:1;fill-rule:nonzero;stroke:none"
         d="m 1949.62,5352.01 79.76,46.04 v 92.09 l -24.85,-14.34 -54.91,-31.7 v -92.09" /><path
         id="path142"
         style="fill:#0000fe;fill-opacity:1;fill-rule:nonzero;stroke:none"
         d="m 1864.86,5498.8 79.76,-46.05 79.76,46.05 -79.76,46.05 -79.76,-46.05" /><path
         id="path144"
         style="fill:#ccccc9;fill-opacity:1;fill-rule:nonzero;stroke:none"
         d="m 1859.86,5490.14 24.85,-14.34 54.91,-31.7 v -92.09 l -79.76,46.04 z m 169.52,0 v -92.09 l -79.76,-46.04 v 92.09 l 54.91,31.7 z m -5,8.66 -79.76,-46.05 -79.76,46.05 79.76,46.05 z m -77.26,56.16 c -1.54,0.88 -3.46,0.88 -5,0 l -89.76,-51.83 c -1.54,-0.89 -2.5,-2.54 -2.5,-4.33 v -103.63 c 0,-1.79 0.96,-3.44 2.5,-4.34 l 89.76,-51.82 2.5,-0.67 2.5,0.67 89.76,51.82 c 1.54,0.9 2.5,2.55 2.5,4.34 v 103.63 c 0,1.79 -0.96,3.44 -2.5,4.33 l -89.76,51.83" /><path
         id="path146"
         style="fill:#0000fe;fill-opacity:1;fill-rule:nonzero;stroke:none"
         d="m 5460.72,6206.68 -54.9,31.7 -24.85,14.34 v -92.09 l 79.75,-46.05 v 92.1" /><path
         id="path148"
         style="fill:#0000fe;fill-opacity:1;fill-rule:nonzero;stroke:none"
         d="m 5470.72,6114.58 79.76,46.05 v 92.09 l -24.85,-14.34 -54.91,-31.7 v -92.1" /><path
         id="path150"
         style="fill:#0000fe;fill-opacity:1;fill-rule:nonzero;stroke:none"
         d="m 5385.97,6261.39 79.75,-46.05 79.76,46.05 -79.76,46.05 -79.75,-46.05" /><path
         id="path152"
         style="fill:#ccccc9;fill-opacity:1;fill-rule:nonzero;stroke:none"
         d="m 5380.97,6252.72 24.85,-14.34 54.9,-31.7 v -92.1 l -79.75,46.05 z m 169.51,0 v -92.09 l -79.76,-46.05 v 92.1 l 54.91,31.7 z m -5,8.67 -79.76,-46.05 -79.75,46.05 79.75,46.05 z m -77.26,56.15 c -1.54,0.89 -3.45,0.89 -5,0 l -89.75,-51.82 c -1.55,-0.9 -2.5,-2.55 -2.5,-4.33 v -103.65 c 0,-1.78 0.95,-3.43 2.5,-4.33 l 89.75,-51.82 2.5,-0.67 2.5,0.67 89.76,51.82 c 1.54,0.9 2.5,2.55 2.5,4.33 v 103.65 c 0,1.78 -0.96,3.43 -2.5,4.33 l -89.76,51.82" /><path
         id="path154"
         style="fill:#0000fe;fill-opacity:1;fill-rule:nonzero;stroke:none"
         d="m 5949.06,5706.76 -54.9,31.7 -24.85,14.34 v -92.09 l 79.75,-46.05 v 92.1" /><path
         id="path156"
         style="fill:#ccccc9;fill-opacity:1;fill-rule:nonzero;stroke:none"
         d="m 6033.82,5761.46 -79.76,-46.04 -79.75,46.04 79.75,46.05 z m 5,-8.66 v -92.09 l -79.76,-46.05 v 92.1 l 54.9,31.7 z m -169.51,0 24.85,-14.34 54.9,-31.7 v -92.1 l -79.75,46.05 z m 82.25,-151.13 2.5,-0.67 2.5,0.67 89.76,51.82 c 1.54,0.89 2.5,2.55 2.5,4.33 v 103.64 c 0,1.79 -0.96,3.44 -2.5,4.34 l -89.76,51.82 c -1.54,0.89 -3.45,0.89 -5,0 l -89.75,-51.82 c -1.55,-0.9 -2.5,-2.55 -2.5,-4.34 v -103.64 c 0,-1.78 0.95,-3.44 2.5,-4.33 l 89.75,-51.82" /><path
         id="path158"
         style="fill:#0000fe;fill-opacity:1;fill-rule:nonzero;stroke:none"
         d="m 5959.06,5614.66 79.76,46.05 v 92.09 l -24.86,-14.34 -54.9,-31.7 v -92.1" /><path
         id="path160"
         style="fill:#0000fe;fill-opacity:1;fill-rule:nonzero;stroke:none"
         d="m 5874.31,5761.46 79.75,-46.04 79.76,46.04 -79.76,46.05 -79.75,-46.05" /><path
         id="path162"
         style="fill:#0000fe;fill-opacity:1;fill-rule:nonzero;stroke:none"
         d="m 5906.57,3133.27 -79.75,46.05 v -92.09 l 79.75,-46.05 v 92.09" /><path
         id="path164"
         style="fill:#0000fe;fill-opacity:1;fill-rule:nonzero;stroke:none"
         d="m 5916.57,3041.18 79.76,46.05 v 92.09 l -79.76,-46.05 v -92.09" /><path
         id="path166"
         style="fill:#0000fe;fill-opacity:1;fill-rule:nonzero;stroke:none"
         d="m 5911.57,3141.93 79.76,46.05 -79.76,46.05 -79.75,-46.05 79.75,-46.05" /><path
         id="path168"
         style="fill:#ccccc9;fill-opacity:1;fill-rule:nonzero;stroke:none"
         d="m 5996.33,3087.23 -79.76,-46.05 v 92.09 l 79.76,46.05 z m -169.51,92.09 79.75,-46.05 v -92.09 l -79.75,46.05 z m 164.51,8.66 -79.76,-46.05 -79.75,46.05 79.75,46.05 z m 12.5,4.32 -89.76,51.83 c -1.54,0.9 -3.45,0.9 -5,0 l -89.75,-51.83 c -1.55,-0.88 -2.5,-2.53 -2.5,-4.32 v -103.64 c 0,-1.79 0.95,-3.44 2.5,-4.33 l 89.75,-51.82 2.5,-0.67 2.5,0.67 89.76,51.82 c 1.54,0.89 2.5,2.54 2.5,4.33 v 103.64 c 0,1.79 -0.96,3.44 -2.5,4.32" /><path
         id="path170"
         style="fill:#0000fe;fill-opacity:1;fill-rule:nonzero;stroke:none"
         d="m 6307.83,4432.08 -54.9,31.7 -24.85,14.34 v -92.09 l 79.75,-46.04 v 92.09" /><path
         id="path172"
         style="fill:#0000fe;fill-opacity:1;fill-rule:nonzero;stroke:none"
         d="m 6317.83,4339.99 79.77,46.04 v 92.09 l -31.29,-18.06 -48.48,-27.98 v -92.09" /><path
         id="path174"
         style="fill:#0000fe;fill-opacity:1;fill-rule:nonzero;stroke:none"
         d="m 6233.08,4486.79 79.75,-46.05 79.77,46.05 -79.77,46.05 -79.75,-46.05" /><path
         id="path176"
         style="fill:#ccccc9;fill-opacity:1;fill-rule:nonzero;stroke:none"
         d="m 6228.08,4478.12 24.85,-14.34 54.9,-31.7 v -92.09 l -79.75,46.04 z m 164.52,8.67 -79.77,-46.05 -79.75,46.05 79.75,46.05 z m 5,-8.67 v -92.09 l -79.77,-46.04 v 92.09 l 48.48,27.98 z m -82.27,64.82 c -1.54,0.89 -3.45,0.89 -5,0 l -89.75,-51.82 c -1.55,-0.9 -2.5,-2.55 -2.5,-4.33 v -103.65 c 0,-1.78 0.95,-3.43 2.5,-4.33 l 89.75,-51.82 2.5,-0.67 2.5,0.67 89.77,51.82 c 1.54,0.9 2.5,2.55 2.5,4.33 v 103.65 c 0,1.78 -0.96,3.43 -2.5,4.33 l -89.77,51.82" /><path
         id="path178"
         style="fill:#0000fe;fill-opacity:1;fill-rule:nonzero;stroke:none"
         d="m 2872.92,6437.26 -54.91,31.7 -24.85,14.34 v -92.09 l 79.76,-46.05 v 92.1" /><path
         id="path180"
         style="fill:#ccccc9;fill-opacity:1;fill-rule:nonzero;stroke:none"
         d="m 2957.68,6491.96 -79.76,-46.05 -79.76,46.05 79.76,46.05 z m 5,-8.66 v -92.09 l -79.76,-46.05 v 92.1 l 54.91,31.7 z m -169.52,0 24.85,-14.34 54.91,-31.7 v -92.1 l -79.76,46.05 z m 82.26,-151.13 2.5,-0.67 2.5,0.67 89.76,51.82 c 1.54,0.89 2.5,2.54 2.5,4.33 v 103.64 c 0,1.79 -0.96,3.44 -2.5,4.33 l -89.76,51.83 c -1.54,0.88 -3.46,0.88 -5,0 l -89.76,-51.83 c -1.54,-0.89 -2.5,-2.54 -2.5,-4.33 v -103.64 c 0,-1.79 0.96,-3.44 2.5,-4.33 l 89.76,-51.82" /><path
         id="path182"
         style="fill:#0000fe;fill-opacity:1;fill-rule:nonzero;stroke:none"
         d="m 2882.92,6345.16 79.76,46.05 v 92.09 l -24.85,-14.34 -54.91,-31.7 v -92.1" /><path
         id="path184"
         style="fill:#0000fe;fill-opacity:1;fill-rule:nonzero;stroke:none"
         d="m 2798.16,6491.96 79.76,-46.05 79.76,46.05 -79.76,46.05 -79.76,-46.05" /><path
         id="path186"
         style="fill:#0000fe;fill-opacity:1;fill-rule:nonzero;stroke:none"
         d="m 4200.75,6733.75 -54.9,31.7 -24.85,14.34 v -92.09 l 79.75,-46.04 v 92.09" /><path
         id="path188"
         style="fill:#ccccc9;fill-opacity:1;fill-rule:nonzero;stroke:none"
         d="m 4285.51,6788.46 -79.76,-46.05 -79.75,46.05 79.75,46.05 z m 5,-8.67 v -92.09 l -79.76,-46.04 v 92.09 l 54.9,31.7 z m -169.51,0 24.85,-14.34 54.9,-31.7 v -92.09 L 4121,6687.7 Z m 82.25,-151.13 2.5,-0.67 2.5,0.67 89.76,51.82 c 1.54,0.9 2.5,2.55 2.5,4.33 v 103.65 c 0,1.78 -0.96,3.43 -2.5,4.33 l -89.76,51.82 c -1.54,0.89 -3.46,0.89 -5,0 l -89.75,-51.82 c -1.55,-0.9 -2.5,-2.55 -2.5,-4.33 v -103.65 c 0,-1.78 0.95,-3.43 2.5,-4.33 l 89.75,-51.82" /><path
         id="path190"
         style="fill:#0000fe;fill-opacity:1;fill-rule:nonzero;stroke:none"
         d="m 4210.75,6641.66 79.76,46.04 v 92.09 l -24.86,-14.34 -54.9,-31.7 v -92.09" /><path
         id="path192"
         style="fill:#0000fe;fill-opacity:1;fill-rule:nonzero;stroke:none"
         d="m 4126,6788.46 79.75,-46.05 79.76,46.05 -79.76,46.05 -79.75,-46.05" /><path
         id="path194"
         style="fill:#0000fe;fill-opacity:1;fill-rule:nonzero;stroke:none"
         d="m 4109.51,2559.03 -187.09,108.02 v -216.02 l 187.09,-108.02 v 216.02" /><path
         id="path196"
         style="fill:#0000fe;fill-opacity:1;fill-rule:nonzero;stroke:none"
         d="m 4119.51,2343.01 187.09,108.02 v 216.02 l -187.09,-108.02 v -216.02" /><path
         id="path198"
         style="fill:#0000fe;fill-opacity:1;fill-rule:nonzero;stroke:none"
         d="m 4114.51,2567.7 187.09,108.01 -187.09,108.03 -187.09,-108.03 187.09,-108.01" /><path
         id="path200"
         style="fill:#ccccc9;fill-opacity:1;fill-rule:nonzero;stroke:none"
         d="m 4306.6,2451.03 -187.09,-108.02 v 216.02 l 187.09,108.02 z m -384.18,216.02 187.09,-108.02 v -216.02 l -187.09,108.02 z m 379.18,8.66 -187.09,-108.01 -187.09,108.01 187.09,108.03 z m 12.5,4.33 -197.09,113.8 c -1.54,0.9 -3.46,0.9 -5,0 l -197.09,-113.8 c -1.55,-0.89 -2.5,-2.54 -2.5,-4.33 v -227.58 c 0,-1.78 0.95,-3.43 2.5,-4.32 l 197.09,-113.79 2.5,-0.67 2.5,0.67 197.09,113.79 c 1.54,0.89 2.5,2.54 2.5,4.32 v 227.58 c 0,1.79 -0.96,3.44 -2.5,4.33" /><path
         id="path202"
         style="fill:#0000fe;fill-opacity:1;fill-rule:nonzero;stroke:none"
         d="m 2304.33,2862.88 -187.1,108.02 v -216.03 l 187.1,-108.02 v 216.03" /><path
         id="path204"
         style="fill:#0000fe;fill-opacity:1;fill-rule:nonzero;stroke:none"
         d="m 2501.42,2970.9 -187.09,-108.02 v -216.03 l 187.09,108.02 v 216.03" /><path
         id="path206"
         style="fill:#0000fe;fill-opacity:1;fill-rule:nonzero;stroke:none"
         d="m 2309.33,2871.54 187.09,108.02 -187.09,108.02 -187.1,-108.02 187.1,-108.02" /><path
         id="path208"
         style="fill:#ccccc9;fill-opacity:1;fill-rule:nonzero;stroke:none"
         d="m 2117.23,2970.9 187.1,-108.02 v -216.03 l -187.1,108.02 z m 379.19,8.66 -187.09,-108.02 -187.1,108.02 187.1,108.02 z m -182.09,-116.68 187.09,108.02 v -216.03 l -187.09,-108.02 z m 194.59,121.01 -197.09,113.79 c -1.55,0.89 -3.46,0.89 -5,0 l -197.1,-113.79 c -1.55,-0.89 -2.5,-2.54 -2.5,-4.33 v -227.58 c 0,-1.78 0.95,-3.44 2.5,-4.32 l 197.1,-113.8 2.5,-0.68 2.5,0.68 197.09,113.8 c 1.54,0.88 2.5,2.54 2.5,4.32 v 227.58 c 0,1.79 -0.96,3.44 -2.5,4.33" /><g
         id="g210"><g
           clip-path="url(#clipPath216)"
           id="g212"></g></g></g></g></svg>